M48
METRIC,TZ
T01C1.0160
T02C1.2700
T03C0.7620
%
T01
X-99900Y-18420
X-99900Y-15880
X-99900Y-13340
X-99900Y-10800
X-99900Y-8260
X-99900Y-5720
X-99900Y-3180
X-99900Y-640
X-99900Y+1900
X-99900Y+4440
X-99900Y+6980
X-99900Y+9520
X-99800Y+23700
X-97260Y+23700
X-94720Y+23700
X-92180Y+23700
X-89640Y+23700
X-87100Y+23700
X-84560Y+23700
X-82020Y+23700
X-79480Y+23700
X-79480Y+31320
X-82020Y+31320
X-84560Y+31320
X-87100Y+31320
X-89640Y+31320
X-92180Y+31320
X-94720Y+31320
X-97260Y+31320
X-99800Y+31320
X-99900Y-21020
X-99800Y+48400
X-97260Y+48400
X-94720Y+48400
X-92180Y+48400
X-89640Y+48400
X-87100Y+48400
X-84560Y+48400
X-82020Y+48400
X-69380Y-17524
X-66840Y-17524
X-64300Y-17524
X-61760Y-17524
X-59220Y-17524
X-56680Y-17524
X-54140Y-17524
X-51600Y-17524
X-51600Y-9904
X-54140Y-9904
X-56680Y-9904
X-59220Y-9904
X-61760Y-9904
X-64300Y-9904
X-66840Y-9904
X-69380Y-9904
X-43980Y-17524
X-41440Y-17524
X-38900Y-17524
X-36360Y-17524
X-33820Y-17524
X-31280Y-17524
X-28740Y-17524
X-26200Y-17524
X-26200Y-9904
X-28740Y-9904
X-31280Y-9904
X-33820Y-9904
X-36360Y-9904
X-38900Y-9904
X-41440Y-9904
X-43980Y-9904
X-19080Y-17424
X-16540Y-17424
X-14000Y-17424
X-11460Y-17424
X-8920Y-17424
X-6380Y-17424
X-3840Y-17424
X-1300Y-17424
X-1300Y-9804
X-3840Y-9804
X-6380Y-9804
X-8920Y-9804
X-11460Y-9804
X-14000Y-9804
X-16540Y-9804
X-19080Y-9804
X+5820Y-17424
X+8360Y-17424
X+10900Y-17424
X+13440Y-17424
X+15980Y-17424
X+18520Y-17424
X+21060Y-17424
X+23600Y-17424
X+23600Y-9804
X+21060Y-9804
X+18520Y-9804
X+15980Y-9804
X+13440Y-9804
X+10900Y-9804
X+8360Y-9804
X+5820Y-9804
X+19300Y+31300
X+16760Y+31300
X+14220Y+31300
X+11680Y+31300
X+9140Y+31300
X+6600Y+31300
X+4060Y+31300
X+1520Y+31300
X+1520Y+23680
X+4060Y+23680
X+6600Y+23680
X+9140Y+23680
X+11680Y+23680
X+14220Y+23680
X+16760Y+23680
X+19300Y+23680
X-5500Y+31300
X-8040Y+31300
X-10580Y+31300
X-13120Y+31300
X-15660Y+31300
X-18200Y+31300
X-20740Y+31300
X-23280Y+31300
X-23280Y+23680
X-20740Y+23680
X-18200Y+23680
X-15660Y+23680
X-13120Y+23680
X-10580Y+23680
X-8040Y+23680
X-5500Y+23680
X-30600Y+31300
X-33140Y+31300
X-35680Y+31300
X-38220Y+31300
X-40760Y+31300
X-43300Y+31300
X-45840Y+31300
X-48380Y+31300
X-48380Y+23680
X-45840Y+23680
X-43300Y+23680
X-40760Y+23680
X-38220Y+23680
X-35680Y+23680
X-33140Y+23680
X-30600Y+23680
X-55500Y+31300
X-58040Y+31300
X-60580Y+31300
X-63120Y+31300
X-65660Y+31300
X-68200Y+31300
X-70740Y+31300
X-73280Y+31300
X-73280Y+23680
X-70740Y+23680
X-68200Y+23680
X-65660Y+23680
X-63120Y+23680
X-60580Y+23680
X-58040Y+23680
X-55500Y+23680
X-65200Y+20800
X-65200Y+10640
X-40600Y+21000
X-40600Y+10840
X-16100Y+21000
X-16100Y+10840
X+9400Y+21000
X+9400Y+10840
X+16020Y-7124
X+16020Y+3036
X-8480Y-7124
X-8480Y+3036
X-33980Y-7124
X-33980Y+3036
X-59480Y-7024
X-59480Y+3136
X-76200Y+21400
X-76200Y+31560
X-56180Y+3076
X-56180Y-7084
X-31180Y+2976
X-31180Y-7184
X-5880Y+3076
X-5880Y-7084
X+18620Y+3076
X+18620Y-7084
X+6300Y+10900
X+6300Y+21060
X-18800Y+11000
X-18800Y+21160
X-67900Y+10540
X-67900Y+20700
X-43300Y+10800
X-43300Y+20960
X-72980Y-18824
X-72980Y-8664
X-47780Y-17624
X-47780Y-7464
X-22480Y-17424
X-22480Y-7264
X+2420Y-17224
X+2420Y-7064
X+22900Y+31300
X+22900Y+21140
X-2000Y+31200
X-2000Y+21040
X-27200Y+31300
X-27200Y+21140
X-52000Y+31200
X-52000Y+21040
X-74120Y-34424
X-71580Y-34424
X-69040Y-34424
X-66500Y-34424
X-63960Y-34424
X-61420Y-34424
X-47580Y-34524
X-45040Y-34524
X-42500Y-34524
X-39960Y-34524
X-37420Y-34524
X-34880Y-34524
X-32340Y-34524
X-29800Y-34524
X-22260Y-34624
X-19720Y-34624
X-17180Y-34624
X-14640Y-34624
X-12100Y-34624
X-9560Y-34624
X-7020Y-34624
X-4480Y-34624
X+2220Y-34624
X+4760Y-34624
X+7300Y-34624
X+9840Y-34624
X+12380Y-34624
X+14920Y-34624
X+17460Y-34624
X+20000Y-34624
X+22900Y+48500
X+20360Y+48500
X+17820Y+48500
X+15280Y+48500
X+12740Y+48500
X+10200Y+48500
X+7660Y+48500
X+5120Y+48500
X-2100Y+48400
X-4640Y+48400
X-7180Y+48400
X-9720Y+48400
X-12260Y+48400
X-14800Y+48400
X-17340Y+48400
X-19880Y+48400
X-27200Y+48500
X-29740Y+48500
X-32280Y+48500
X-34820Y+48500
X-37360Y+48500
X-39900Y+48500
X-42440Y+48500
X-44980Y+48500
X-52000Y+48400
X-54540Y+48400
X-57080Y+48400
X-59620Y+48400
X-62160Y+48400
X-64700Y+48400
X-67240Y+48400
X-69780Y+48400
X-69380Y-30324
X-69380Y-20164
X-66780Y-30224
X-66780Y-20064
X-64180Y-30224
X-64180Y-20064
X-61480Y-30224
X-61480Y-20064
X-58680Y-30224
X-58680Y-20064
X-56080Y-30224
X-56080Y-20064
X-53380Y-30324
X-53380Y-20164
X-43980Y-30084
X-43980Y-19924
X-41380Y-30084
X-41380Y-19924
X-38680Y-29984
X-38680Y-19824
X-36080Y-29984
X-36080Y-19824
X-33280Y-29984
X-33280Y-19824
X-30580Y-30084
X-30580Y-19924
X-27980Y-29984
X-27980Y-19824
X-16680Y-29924
X-16680Y-19764
X-14080Y-30024
X-14080Y-19864
X-11480Y-30024
X-11480Y-19864
X-8780Y-30024
X-8780Y-19864
X-6080Y-30024
X-6080Y-19864
X-3380Y-30024
X-3380Y-19864
X+5820Y-29924
X+5820Y-19764
X+8420Y-30024
X+8420Y-19864
X+11120Y-30024
X+11120Y-19864
X+13820Y-30024
X+13820Y-19864
X+16520Y-30024
X+16520Y-19864
X+19120Y-29924
X+19120Y-19764
X+21720Y-29924
X+21720Y-19764
X+20200Y+33740
X+17300Y+33740
X+14700Y+33740
X+12100Y+33740
X+9400Y+33640
X+6700Y+33640
X-5200Y+33740
X-7800Y+33640
X-10500Y+33640
X-13100Y+33740
X-15700Y+33740
X-18500Y+33740
X-21500Y+33740
X-29900Y+33740
X-32500Y+33740
X-35400Y+33740
X-38000Y+33740
X-40700Y+33740
X-43300Y+33740
X-45900Y+33740
X-54700Y+44100
X-54700Y+33940
X-57600Y+44000
X-57600Y+33840
X-60300Y+43900
X-60300Y+33740
X-62900Y+43900
X-62900Y+33740
X-65600Y+43900
X-65600Y+33740
X-68200Y+43800
X-68200Y+33640
X-70800Y+43800
X-70800Y+33640
T02
X-58880Y-34424
X-56340Y-34424
T03
X+20200Y+43900
X+17300Y+43900
X+14700Y+43900
X+12100Y+43900
X+9400Y+43800
X+6700Y+43800
X+4200Y+43800
X+4200Y+33640
X-5200Y+43900
X-7800Y+43800
X-10500Y+43800
X-13100Y+43900
X-15700Y+43900
X-18500Y+43900
X-21500Y+43900
X-29900Y+43900
X-32500Y+43900
X-35400Y+43900
X-38000Y+43900
X-40700Y+43900
X-43300Y+43900
X-45900Y+43900
X-19600Y-30100
X-19600Y-19940
M30
