G04 PROTEUS RS274X GERBER FILE*
%FSLAX45Y45*%
%MOMM*%
G01*
%ADD12C,0.203200*%
%ADD24C,0.127000*%
%ADD25C,0.063500*%
D12*
X-10034901Y-1797099D02*
X-9945099Y-1886901D01*
X-10034901Y-1886901D02*
X-9945099Y-1797099D01*
X-10034901Y-1543099D02*
X-9945099Y-1632901D01*
X-10034901Y-1632901D02*
X-9945099Y-1543099D01*
X-10034901Y-1289099D02*
X-9945099Y-1378901D01*
X-10034901Y-1378901D02*
X-9945099Y-1289099D01*
X-10034901Y-1035099D02*
X-9945099Y-1124901D01*
X-10034901Y-1124901D02*
X-9945099Y-1035099D01*
X-10034901Y-781099D02*
X-9945099Y-870901D01*
X-10034901Y-870901D02*
X-9945099Y-781099D01*
X-10034901Y-527099D02*
X-9945099Y-616901D01*
X-10034901Y-616901D02*
X-9945099Y-527099D01*
X-10034901Y-273099D02*
X-9945099Y-362901D01*
X-10034901Y-362901D02*
X-9945099Y-273099D01*
X-10034901Y-19099D02*
X-9945099Y-108901D01*
X-10034901Y-108901D02*
X-9945099Y-19099D01*
X-10034901Y+234901D02*
X-9945099Y+145099D01*
X-10034901Y+145099D02*
X-9945099Y+234901D01*
X-10034901Y+488901D02*
X-9945099Y+399099D01*
X-10034901Y+399099D02*
X-9945099Y+488901D01*
X-10034901Y+742901D02*
X-9945099Y+653099D01*
X-10034901Y+653099D02*
X-9945099Y+742901D01*
X-10034901Y+996901D02*
X-9945099Y+907099D01*
X-10034901Y+907099D02*
X-9945099Y+996901D01*
X-10024901Y+2414901D02*
X-9935099Y+2325099D01*
X-10024901Y+2325099D02*
X-9935099Y+2414901D01*
X-9770901Y+2414901D02*
X-9681099Y+2325099D01*
X-9770901Y+2325099D02*
X-9681099Y+2414901D01*
X-9516901Y+2414901D02*
X-9427099Y+2325099D01*
X-9516901Y+2325099D02*
X-9427099Y+2414901D01*
X-9262901Y+2414901D02*
X-9173099Y+2325099D01*
X-9262901Y+2325099D02*
X-9173099Y+2414901D01*
X-9008901Y+2414901D02*
X-8919099Y+2325099D01*
X-9008901Y+2325099D02*
X-8919099Y+2414901D01*
X-8754901Y+2414901D02*
X-8665099Y+2325099D01*
X-8754901Y+2325099D02*
X-8665099Y+2414901D01*
X-8500901Y+2414901D02*
X-8411099Y+2325099D01*
X-8500901Y+2325099D02*
X-8411099Y+2414901D01*
X-8246901Y+2414901D02*
X-8157099Y+2325099D01*
X-8246901Y+2325099D02*
X-8157099Y+2414901D01*
X-7992901Y+2414901D02*
X-7903099Y+2325099D01*
X-7992901Y+2325099D02*
X-7903099Y+2414901D01*
X-7992901Y+3176901D02*
X-7903099Y+3087099D01*
X-7992901Y+3087099D02*
X-7903099Y+3176901D01*
X-8246901Y+3176901D02*
X-8157099Y+3087099D01*
X-8246901Y+3087099D02*
X-8157099Y+3176901D01*
X-8500901Y+3176901D02*
X-8411099Y+3087099D01*
X-8500901Y+3087099D02*
X-8411099Y+3176901D01*
X-8754901Y+3176901D02*
X-8665099Y+3087099D01*
X-8754901Y+3087099D02*
X-8665099Y+3176901D01*
X-9008901Y+3176901D02*
X-8919099Y+3087099D01*
X-9008901Y+3087099D02*
X-8919099Y+3176901D01*
X-9262901Y+3176901D02*
X-9173099Y+3087099D01*
X-9262901Y+3087099D02*
X-9173099Y+3176901D01*
X-9516901Y+3176901D02*
X-9427099Y+3087099D01*
X-9516901Y+3087099D02*
X-9427099Y+3176901D01*
X-9770901Y+3176901D02*
X-9681099Y+3087099D01*
X-9770901Y+3087099D02*
X-9681099Y+3176901D01*
X-10024901Y+3176901D02*
X-9935099Y+3087099D01*
X-10024901Y+3087099D02*
X-9935099Y+3176901D01*
X-10034901Y-2057099D02*
X-9945099Y-2146901D01*
X-10034901Y-2146901D02*
X-9945099Y-2057099D01*
X-10024901Y+4884901D02*
X-9935099Y+4795099D01*
X-10024901Y+4795099D02*
X-9935099Y+4884901D01*
X-9770901Y+4884901D02*
X-9681099Y+4795099D01*
X-9770901Y+4795099D02*
X-9681099Y+4884901D01*
X-9516901Y+4884901D02*
X-9427099Y+4795099D01*
X-9516901Y+4795099D02*
X-9427099Y+4884901D01*
X-9262901Y+4884901D02*
X-9173099Y+4795099D01*
X-9262901Y+4795099D02*
X-9173099Y+4884901D01*
X-9008901Y+4884901D02*
X-8919099Y+4795099D01*
X-9008901Y+4795099D02*
X-8919099Y+4884901D01*
X-8754901Y+4884901D02*
X-8665099Y+4795099D01*
X-8754901Y+4795099D02*
X-8665099Y+4884901D01*
X-8500901Y+4884901D02*
X-8411099Y+4795099D01*
X-8500901Y+4795099D02*
X-8411099Y+4884901D01*
X-8246901Y+4884901D02*
X-8157099Y+4795099D01*
X-8246901Y+4795099D02*
X-8157099Y+4884901D01*
X-6982901Y-1707450D02*
X-6893099Y-1797252D01*
X-6982901Y-1797252D02*
X-6893099Y-1707450D01*
X-6728901Y-1707450D02*
X-6639099Y-1797252D01*
X-6728901Y-1797252D02*
X-6639099Y-1707450D01*
X-6474901Y-1707450D02*
X-6385099Y-1797252D01*
X-6474901Y-1797252D02*
X-6385099Y-1707450D01*
X-6220901Y-1707450D02*
X-6131099Y-1797252D01*
X-6220901Y-1797252D02*
X-6131099Y-1707450D01*
X-5966901Y-1707450D02*
X-5877099Y-1797252D01*
X-5966901Y-1797252D02*
X-5877099Y-1707450D01*
X-5712901Y-1707450D02*
X-5623099Y-1797252D01*
X-5712901Y-1797252D02*
X-5623099Y-1707450D01*
X-5458901Y-1707450D02*
X-5369099Y-1797252D01*
X-5458901Y-1797252D02*
X-5369099Y-1707450D01*
X-5204901Y-1707450D02*
X-5115099Y-1797252D01*
X-5204901Y-1797252D02*
X-5115099Y-1707450D01*
X-5204901Y-945450D02*
X-5115099Y-1035252D01*
X-5204901Y-1035252D02*
X-5115099Y-945450D01*
X-5458901Y-945450D02*
X-5369099Y-1035252D01*
X-5458901Y-1035252D02*
X-5369099Y-945450D01*
X-5712901Y-945450D02*
X-5623099Y-1035252D01*
X-5712901Y-1035252D02*
X-5623099Y-945450D01*
X-5966901Y-945450D02*
X-5877099Y-1035252D01*
X-5966901Y-1035252D02*
X-5877099Y-945450D01*
X-6220901Y-945450D02*
X-6131099Y-1035252D01*
X-6220901Y-1035252D02*
X-6131099Y-945450D01*
X-6474901Y-945450D02*
X-6385099Y-1035252D01*
X-6474901Y-1035252D02*
X-6385099Y-945450D01*
X-6728901Y-945450D02*
X-6639099Y-1035252D01*
X-6728901Y-1035252D02*
X-6639099Y-945450D01*
X-6982901Y-945450D02*
X-6893099Y-1035252D01*
X-6982901Y-1035252D02*
X-6893099Y-945450D01*
X-4442901Y-1707450D02*
X-4353099Y-1797252D01*
X-4442901Y-1797252D02*
X-4353099Y-1707450D01*
X-4188901Y-1707450D02*
X-4099099Y-1797252D01*
X-4188901Y-1797252D02*
X-4099099Y-1707450D01*
X-3934901Y-1707450D02*
X-3845099Y-1797252D01*
X-3934901Y-1797252D02*
X-3845099Y-1707450D01*
X-3680901Y-1707450D02*
X-3591099Y-1797252D01*
X-3680901Y-1797252D02*
X-3591099Y-1707450D01*
X-3426901Y-1707450D02*
X-3337099Y-1797252D01*
X-3426901Y-1797252D02*
X-3337099Y-1707450D01*
X-3172901Y-1707450D02*
X-3083099Y-1797252D01*
X-3172901Y-1797252D02*
X-3083099Y-1707450D01*
X-2918901Y-1707450D02*
X-2829099Y-1797252D01*
X-2918901Y-1797252D02*
X-2829099Y-1707450D01*
X-2664901Y-1707450D02*
X-2575099Y-1797252D01*
X-2664901Y-1797252D02*
X-2575099Y-1707450D01*
X-2664901Y-945450D02*
X-2575099Y-1035252D01*
X-2664901Y-1035252D02*
X-2575099Y-945450D01*
X-2918901Y-945450D02*
X-2829099Y-1035252D01*
X-2918901Y-1035252D02*
X-2829099Y-945450D01*
X-3172901Y-945450D02*
X-3083099Y-1035252D01*
X-3172901Y-1035252D02*
X-3083099Y-945450D01*
X-3426901Y-945450D02*
X-3337099Y-1035252D01*
X-3426901Y-1035252D02*
X-3337099Y-945450D01*
X-3680901Y-945450D02*
X-3591099Y-1035252D01*
X-3680901Y-1035252D02*
X-3591099Y-945450D01*
X-3934901Y-945450D02*
X-3845099Y-1035252D01*
X-3934901Y-1035252D02*
X-3845099Y-945450D01*
X-4188901Y-945450D02*
X-4099099Y-1035252D01*
X-4188901Y-1035252D02*
X-4099099Y-945450D01*
X-4442901Y-945450D02*
X-4353099Y-1035252D01*
X-4442901Y-1035252D02*
X-4353099Y-945450D01*
X-1952901Y-1697450D02*
X-1863099Y-1787252D01*
X-1952901Y-1787252D02*
X-1863099Y-1697450D01*
X-1698901Y-1697450D02*
X-1609099Y-1787252D01*
X-1698901Y-1787252D02*
X-1609099Y-1697450D01*
X-1444901Y-1697450D02*
X-1355099Y-1787252D01*
X-1444901Y-1787252D02*
X-1355099Y-1697450D01*
X-1190901Y-1697450D02*
X-1101099Y-1787252D01*
X-1190901Y-1787252D02*
X-1101099Y-1697450D01*
X-936901Y-1697450D02*
X-847099Y-1787252D01*
X-936901Y-1787252D02*
X-847099Y-1697450D01*
X-682901Y-1697450D02*
X-593099Y-1787252D01*
X-682901Y-1787252D02*
X-593099Y-1697450D01*
X-428901Y-1697450D02*
X-339099Y-1787252D01*
X-428901Y-1787252D02*
X-339099Y-1697450D01*
X-174901Y-1697450D02*
X-85099Y-1787252D01*
X-174901Y-1787252D02*
X-85099Y-1697450D01*
X-174901Y-935450D02*
X-85099Y-1025252D01*
X-174901Y-1025252D02*
X-85099Y-935450D01*
X-428901Y-935450D02*
X-339099Y-1025252D01*
X-428901Y-1025252D02*
X-339099Y-935450D01*
X-682901Y-935450D02*
X-593099Y-1025252D01*
X-682901Y-1025252D02*
X-593099Y-935450D01*
X-936901Y-935450D02*
X-847099Y-1025252D01*
X-936901Y-1025252D02*
X-847099Y-935450D01*
X-1190901Y-935450D02*
X-1101099Y-1025252D01*
X-1190901Y-1025252D02*
X-1101099Y-935450D01*
X-1444901Y-935450D02*
X-1355099Y-1025252D01*
X-1444901Y-1025252D02*
X-1355099Y-935450D01*
X-1698901Y-935450D02*
X-1609099Y-1025252D01*
X-1698901Y-1025252D02*
X-1609099Y-935450D01*
X-1952901Y-935450D02*
X-1863099Y-1025252D01*
X-1952901Y-1025252D02*
X-1863099Y-935450D01*
X+537099Y-1697450D02*
X+626901Y-1787252D01*
X+537099Y-1787252D02*
X+626901Y-1697450D01*
X+791099Y-1697450D02*
X+880901Y-1787252D01*
X+791099Y-1787252D02*
X+880901Y-1697450D01*
X+1045099Y-1697450D02*
X+1134901Y-1787252D01*
X+1045099Y-1787252D02*
X+1134901Y-1697450D01*
X+1299099Y-1697450D02*
X+1388901Y-1787252D01*
X+1299099Y-1787252D02*
X+1388901Y-1697450D01*
X+1553099Y-1697450D02*
X+1642901Y-1787252D01*
X+1553099Y-1787252D02*
X+1642901Y-1697450D01*
X+1807099Y-1697450D02*
X+1896901Y-1787252D01*
X+1807099Y-1787252D02*
X+1896901Y-1697450D01*
X+2061099Y-1697450D02*
X+2150901Y-1787252D01*
X+2061099Y-1787252D02*
X+2150901Y-1697450D01*
X+2315099Y-1697450D02*
X+2404901Y-1787252D01*
X+2315099Y-1787252D02*
X+2404901Y-1697450D01*
X+2315099Y-935450D02*
X+2404901Y-1025252D01*
X+2315099Y-1025252D02*
X+2404901Y-935450D01*
X+2061099Y-935450D02*
X+2150901Y-1025252D01*
X+2061099Y-1025252D02*
X+2150901Y-935450D01*
X+1807099Y-935450D02*
X+1896901Y-1025252D01*
X+1807099Y-1025252D02*
X+1896901Y-935450D01*
X+1553099Y-935450D02*
X+1642901Y-1025252D01*
X+1553099Y-1025252D02*
X+1642901Y-935450D01*
X+1299099Y-935450D02*
X+1388901Y-1025252D01*
X+1299099Y-1025252D02*
X+1388901Y-935450D01*
X+1045099Y-935450D02*
X+1134901Y-1025252D01*
X+1045099Y-1025252D02*
X+1134901Y-935450D01*
X+791099Y-935450D02*
X+880901Y-1025252D01*
X+791099Y-1025252D02*
X+880901Y-935450D01*
X+537099Y-935450D02*
X+626901Y-1025252D01*
X+537099Y-1025252D02*
X+626901Y-935450D01*
X+1885099Y+3174901D02*
X+1974901Y+3085099D01*
X+1885099Y+3085099D02*
X+1974901Y+3174901D01*
X+1631099Y+3174901D02*
X+1720901Y+3085099D01*
X+1631099Y+3085099D02*
X+1720901Y+3174901D01*
X+1377099Y+3174901D02*
X+1466901Y+3085099D01*
X+1377099Y+3085099D02*
X+1466901Y+3174901D01*
X+1123099Y+3174901D02*
X+1212901Y+3085099D01*
X+1123099Y+3085099D02*
X+1212901Y+3174901D01*
X+869099Y+3174901D02*
X+958901Y+3085099D01*
X+869099Y+3085099D02*
X+958901Y+3174901D01*
X+615099Y+3174901D02*
X+704901Y+3085099D01*
X+615099Y+3085099D02*
X+704901Y+3174901D01*
X+361099Y+3174901D02*
X+450901Y+3085099D01*
X+361099Y+3085099D02*
X+450901Y+3174901D01*
X+107099Y+3174901D02*
X+196901Y+3085099D01*
X+107099Y+3085099D02*
X+196901Y+3174901D01*
X+107099Y+2412901D02*
X+196901Y+2323099D01*
X+107099Y+2323099D02*
X+196901Y+2412901D01*
X+361099Y+2412901D02*
X+450901Y+2323099D01*
X+361099Y+2323099D02*
X+450901Y+2412901D01*
X+615099Y+2412901D02*
X+704901Y+2323099D01*
X+615099Y+2323099D02*
X+704901Y+2412901D01*
X+869099Y+2412901D02*
X+958901Y+2323099D01*
X+869099Y+2323099D02*
X+958901Y+2412901D01*
X+1123099Y+2412901D02*
X+1212901Y+2323099D01*
X+1123099Y+2323099D02*
X+1212901Y+2412901D01*
X+1377099Y+2412901D02*
X+1466901Y+2323099D01*
X+1377099Y+2323099D02*
X+1466901Y+2412901D01*
X+1631099Y+2412901D02*
X+1720901Y+2323099D01*
X+1631099Y+2323099D02*
X+1720901Y+2412901D01*
X+1885099Y+2412901D02*
X+1974901Y+2323099D01*
X+1885099Y+2323099D02*
X+1974901Y+2412901D01*
X-594901Y+3174901D02*
X-505099Y+3085099D01*
X-594901Y+3085099D02*
X-505099Y+3174901D01*
X-848901Y+3174901D02*
X-759099Y+3085099D01*
X-848901Y+3085099D02*
X-759099Y+3174901D01*
X-1102901Y+3174901D02*
X-1013099Y+3085099D01*
X-1102901Y+3085099D02*
X-1013099Y+3174901D01*
X-1356901Y+3174901D02*
X-1267099Y+3085099D01*
X-1356901Y+3085099D02*
X-1267099Y+3174901D01*
X-1610901Y+3174901D02*
X-1521099Y+3085099D01*
X-1610901Y+3085099D02*
X-1521099Y+3174901D01*
X-1864901Y+3174901D02*
X-1775099Y+3085099D01*
X-1864901Y+3085099D02*
X-1775099Y+3174901D01*
X-2118901Y+3174901D02*
X-2029099Y+3085099D01*
X-2118901Y+3085099D02*
X-2029099Y+3174901D01*
X-2372901Y+3174901D02*
X-2283099Y+3085099D01*
X-2372901Y+3085099D02*
X-2283099Y+3174901D01*
X-2372901Y+2412901D02*
X-2283099Y+2323099D01*
X-2372901Y+2323099D02*
X-2283099Y+2412901D01*
X-2118901Y+2412901D02*
X-2029099Y+2323099D01*
X-2118901Y+2323099D02*
X-2029099Y+2412901D01*
X-1864901Y+2412901D02*
X-1775099Y+2323099D01*
X-1864901Y+2323099D02*
X-1775099Y+2412901D01*
X-1610901Y+2412901D02*
X-1521099Y+2323099D01*
X-1610901Y+2323099D02*
X-1521099Y+2412901D01*
X-1356901Y+2412901D02*
X-1267099Y+2323099D01*
X-1356901Y+2323099D02*
X-1267099Y+2412901D01*
X-1102901Y+2412901D02*
X-1013099Y+2323099D01*
X-1102901Y+2323099D02*
X-1013099Y+2412901D01*
X-848901Y+2412901D02*
X-759099Y+2323099D01*
X-848901Y+2323099D02*
X-759099Y+2412901D01*
X-594901Y+2412901D02*
X-505099Y+2323099D01*
X-594901Y+2323099D02*
X-505099Y+2412901D01*
X-3104901Y+3174901D02*
X-3015099Y+3085099D01*
X-3104901Y+3085099D02*
X-3015099Y+3174901D01*
X-3358901Y+3174901D02*
X-3269099Y+3085099D01*
X-3358901Y+3085099D02*
X-3269099Y+3174901D01*
X-3612901Y+3174901D02*
X-3523099Y+3085099D01*
X-3612901Y+3085099D02*
X-3523099Y+3174901D01*
X-3866901Y+3174901D02*
X-3777099Y+3085099D01*
X-3866901Y+3085099D02*
X-3777099Y+3174901D01*
X-4120901Y+3174901D02*
X-4031099Y+3085099D01*
X-4120901Y+3085099D02*
X-4031099Y+3174901D01*
X-4374901Y+3174901D02*
X-4285099Y+3085099D01*
X-4374901Y+3085099D02*
X-4285099Y+3174901D01*
X-4628901Y+3174901D02*
X-4539099Y+3085099D01*
X-4628901Y+3085099D02*
X-4539099Y+3174901D01*
X-4882901Y+3174901D02*
X-4793099Y+3085099D01*
X-4882901Y+3085099D02*
X-4793099Y+3174901D01*
X-4882901Y+2412901D02*
X-4793099Y+2323099D01*
X-4882901Y+2323099D02*
X-4793099Y+2412901D01*
X-4628901Y+2412901D02*
X-4539099Y+2323099D01*
X-4628901Y+2323099D02*
X-4539099Y+2412901D01*
X-4374901Y+2412901D02*
X-4285099Y+2323099D01*
X-4374901Y+2323099D02*
X-4285099Y+2412901D01*
X-4120901Y+2412901D02*
X-4031099Y+2323099D01*
X-4120901Y+2323099D02*
X-4031099Y+2412901D01*
X-3866901Y+2412901D02*
X-3777099Y+2323099D01*
X-3866901Y+2323099D02*
X-3777099Y+2412901D01*
X-3612901Y+2412901D02*
X-3523099Y+2323099D01*
X-3612901Y+2323099D02*
X-3523099Y+2412901D01*
X-3358901Y+2412901D02*
X-3269099Y+2323099D01*
X-3358901Y+2323099D02*
X-3269099Y+2412901D01*
X-3104901Y+2412901D02*
X-3015099Y+2323099D01*
X-3104901Y+2323099D02*
X-3015099Y+2412901D01*
X-5594901Y+3174901D02*
X-5505099Y+3085099D01*
X-5594901Y+3085099D02*
X-5505099Y+3174901D01*
X-5848901Y+3174901D02*
X-5759099Y+3085099D01*
X-5848901Y+3085099D02*
X-5759099Y+3174901D01*
X-6102901Y+3174901D02*
X-6013099Y+3085099D01*
X-6102901Y+3085099D02*
X-6013099Y+3174901D01*
X-6356901Y+3174901D02*
X-6267099Y+3085099D01*
X-6356901Y+3085099D02*
X-6267099Y+3174901D01*
X-6610901Y+3174901D02*
X-6521099Y+3085099D01*
X-6610901Y+3085099D02*
X-6521099Y+3174901D01*
X-6864901Y+3174901D02*
X-6775099Y+3085099D01*
X-6864901Y+3085099D02*
X-6775099Y+3174901D01*
X-7118901Y+3174901D02*
X-7029099Y+3085099D01*
X-7118901Y+3085099D02*
X-7029099Y+3174901D01*
X-7372901Y+3174901D02*
X-7283099Y+3085099D01*
X-7372901Y+3085099D02*
X-7283099Y+3174901D01*
X-7372901Y+2412901D02*
X-7283099Y+2323099D01*
X-7372901Y+2323099D02*
X-7283099Y+2412901D01*
X-7118901Y+2412901D02*
X-7029099Y+2323099D01*
X-7118901Y+2323099D02*
X-7029099Y+2412901D01*
X-6864901Y+2412901D02*
X-6775099Y+2323099D01*
X-6864901Y+2323099D02*
X-6775099Y+2412901D01*
X-6610901Y+2412901D02*
X-6521099Y+2323099D01*
X-6610901Y+2323099D02*
X-6521099Y+2412901D01*
X-6356901Y+2412901D02*
X-6267099Y+2323099D01*
X-6356901Y+2323099D02*
X-6267099Y+2412901D01*
X-6102901Y+2412901D02*
X-6013099Y+2323099D01*
X-6102901Y+2323099D02*
X-6013099Y+2412901D01*
X-5848901Y+2412901D02*
X-5759099Y+2323099D01*
X-5848901Y+2323099D02*
X-5759099Y+2412901D01*
X-5594901Y+2412901D02*
X-5505099Y+2323099D01*
X-5594901Y+2323099D02*
X-5505099Y+2412901D01*
X-6564901Y+2124901D02*
X-6475099Y+2035099D01*
X-6564901Y+2035099D02*
X-6475099Y+2124901D01*
X-6564901Y+1108901D02*
X-6475099Y+1019099D01*
X-6564901Y+1019099D02*
X-6475099Y+1108901D01*
X-4104901Y+2144901D02*
X-4015099Y+2055099D01*
X-4104901Y+2055099D02*
X-4015099Y+2144901D01*
X-4104901Y+1128901D02*
X-4015099Y+1039099D01*
X-4104901Y+1039099D02*
X-4015099Y+1128901D01*
X-1654901Y+2144901D02*
X-1565099Y+2055099D01*
X-1654901Y+2055099D02*
X-1565099Y+2144901D01*
X-1654901Y+1128901D02*
X-1565099Y+1039099D01*
X-1654901Y+1039099D02*
X-1565099Y+1128901D01*
X+895099Y+2144901D02*
X+984901Y+2055099D01*
X+895099Y+2055099D02*
X+984901Y+2144901D01*
X+895099Y+1128901D02*
X+984901Y+1039099D01*
X+895099Y+1039099D02*
X+984901Y+1128901D01*
X+1557099Y-667450D02*
X+1646901Y-757252D01*
X+1557099Y-757252D02*
X+1646901Y-667450D01*
X+1557099Y+348550D02*
X+1646901Y+258748D01*
X+1557099Y+258748D02*
X+1646901Y+348550D01*
X-892901Y-667450D02*
X-803099Y-757252D01*
X-892901Y-757252D02*
X-803099Y-667450D01*
X-892901Y+348550D02*
X-803099Y+258748D01*
X-892901Y+258748D02*
X-803099Y+348550D01*
X-3442901Y-667450D02*
X-3353099Y-757252D01*
X-3442901Y-757252D02*
X-3353099Y-667450D01*
X-3442901Y+348550D02*
X-3353099Y+258748D01*
X-3442901Y+258748D02*
X-3353099Y+348550D01*
X-5992901Y-657450D02*
X-5903099Y-747252D01*
X-5992901Y-747252D02*
X-5903099Y-657450D01*
X-5992901Y+358550D02*
X-5903099Y+268748D01*
X-5992901Y+268748D02*
X-5903099Y+358550D01*
X-7664901Y+2184901D02*
X-7575099Y+2095099D01*
X-7664901Y+2095099D02*
X-7575099Y+2184901D01*
X-7664901Y+3200901D02*
X-7575099Y+3111099D01*
X-7664901Y+3111099D02*
X-7575099Y+3200901D01*
X-5662901Y+352550D02*
X-5573099Y+262748D01*
X-5662901Y+262748D02*
X-5573099Y+352550D01*
X-5662901Y-663450D02*
X-5573099Y-753252D01*
X-5662901Y-753252D02*
X-5573099Y-663450D01*
X-3162901Y+342550D02*
X-3073099Y+252748D01*
X-3162901Y+252748D02*
X-3073099Y+342550D01*
X-3162901Y-673450D02*
X-3073099Y-763252D01*
X-3162901Y-763252D02*
X-3073099Y-673450D01*
X-632901Y+352550D02*
X-543099Y+262748D01*
X-632901Y+262748D02*
X-543099Y+352550D01*
X-632901Y-663450D02*
X-543099Y-753252D01*
X-632901Y-753252D02*
X-543099Y-663450D01*
X+1817099Y+352550D02*
X+1906901Y+262748D01*
X+1817099Y+262748D02*
X+1906901Y+352550D01*
X+1817099Y-663450D02*
X+1906901Y-753252D01*
X+1817099Y-753252D02*
X+1906901Y-663450D01*
X+585099Y+1134901D02*
X+674901Y+1045099D01*
X+585099Y+1045099D02*
X+674901Y+1134901D01*
X+585099Y+2150901D02*
X+674901Y+2061099D01*
X+585099Y+2061099D02*
X+674901Y+2150901D01*
X-1924901Y+1144901D02*
X-1835099Y+1055099D01*
X-1924901Y+1055099D02*
X-1835099Y+1144901D01*
X-1924901Y+2160901D02*
X-1835099Y+2071099D01*
X-1924901Y+2071099D02*
X-1835099Y+2160901D01*
X-6834901Y+1098901D02*
X-6745099Y+1009099D01*
X-6834901Y+1009099D02*
X-6745099Y+1098901D01*
X-6834901Y+2114901D02*
X-6745099Y+2025099D01*
X-6834901Y+2025099D02*
X-6745099Y+2114901D01*
X-4374901Y+1124901D02*
X-4285099Y+1035099D01*
X-4374901Y+1035099D02*
X-4285099Y+1124901D01*
X-4374901Y+2140901D02*
X-4285099Y+2051099D01*
X-4374901Y+2051099D02*
X-4285099Y+2140901D01*
X-7342901Y-1837450D02*
X-7253099Y-1927252D01*
X-7342901Y-1927252D02*
X-7253099Y-1837450D01*
X-7342901Y-821450D02*
X-7253099Y-911252D01*
X-7342901Y-911252D02*
X-7253099Y-821450D01*
X-4822901Y-1717450D02*
X-4733099Y-1807252D01*
X-4822901Y-1807252D02*
X-4733099Y-1717450D01*
X-4822901Y-701450D02*
X-4733099Y-791252D01*
X-4822901Y-791252D02*
X-4733099Y-701450D01*
X-2292901Y-1697450D02*
X-2203099Y-1787252D01*
X-2292901Y-1787252D02*
X-2203099Y-1697450D01*
X-2292901Y-681450D02*
X-2203099Y-771252D01*
X-2292901Y-771252D02*
X-2203099Y-681450D01*
X+197099Y-1677450D02*
X+286901Y-1767252D01*
X+197099Y-1767252D02*
X+286901Y-1677450D01*
X+197099Y-661450D02*
X+286901Y-751252D01*
X+197099Y-751252D02*
X+286901Y-661450D01*
X+2245099Y+3174901D02*
X+2334901Y+3085099D01*
X+2245099Y+3085099D02*
X+2334901Y+3174901D01*
X+2245099Y+2158901D02*
X+2334901Y+2069099D01*
X+2245099Y+2069099D02*
X+2334901Y+2158901D01*
X-244901Y+3164901D02*
X-155099Y+3075099D01*
X-244901Y+3075099D02*
X-155099Y+3164901D01*
X-244901Y+2148901D02*
X-155099Y+2059099D01*
X-244901Y+2059099D02*
X-155099Y+2148901D01*
X-2764901Y+3174901D02*
X-2675099Y+3085099D01*
X-2764901Y+3085099D02*
X-2675099Y+3174901D01*
X-2764901Y+2158901D02*
X-2675099Y+2069099D01*
X-2764901Y+2069099D02*
X-2675099Y+2158901D01*
X-5244901Y+3164901D02*
X-5155099Y+3075099D01*
X-5244901Y+3075099D02*
X-5155099Y+3164901D01*
X-5244901Y+2148901D02*
X-5155099Y+2059099D01*
X-5244901Y+2059099D02*
X-5155099Y+2148901D01*
X-7456901Y-3397450D02*
X-7367099Y-3487252D01*
X-7456901Y-3487252D02*
X-7367099Y-3397450D01*
X-7202901Y-3397450D02*
X-7113099Y-3487252D01*
X-7202901Y-3487252D02*
X-7113099Y-3397450D01*
X-6948901Y-3397450D02*
X-6859099Y-3487252D01*
X-6948901Y-3487252D02*
X-6859099Y-3397450D01*
X-6694901Y-3397450D02*
X-6605099Y-3487252D01*
X-6694901Y-3487252D02*
X-6605099Y-3397450D01*
X-6440901Y-3397450D02*
X-6351099Y-3487252D01*
X-6440901Y-3487252D02*
X-6351099Y-3397450D01*
X-6186901Y-3397450D02*
X-6097099Y-3487252D01*
X-6186901Y-3487252D02*
X-6097099Y-3397450D01*
X-5888000Y-3378851D02*
X-5888000Y-3505851D01*
X-5951500Y-3442351D02*
X-5824500Y-3442351D01*
X-5932901Y-3397450D02*
X-5843099Y-3487252D01*
X-5932901Y-3487252D02*
X-5843099Y-3397450D01*
X-5634000Y-3378851D02*
X-5634000Y-3505851D01*
X-5697500Y-3442351D02*
X-5570500Y-3442351D01*
X-5678901Y-3397450D02*
X-5589099Y-3487252D01*
X-5678901Y-3487252D02*
X-5589099Y-3397450D01*
X-4802901Y-3407450D02*
X-4713099Y-3497252D01*
X-4802901Y-3497252D02*
X-4713099Y-3407450D01*
X-4548901Y-3407450D02*
X-4459099Y-3497252D01*
X-4548901Y-3497252D02*
X-4459099Y-3407450D01*
X-4294901Y-3407450D02*
X-4205099Y-3497252D01*
X-4294901Y-3497252D02*
X-4205099Y-3407450D01*
X-4040901Y-3407450D02*
X-3951099Y-3497252D01*
X-4040901Y-3497252D02*
X-3951099Y-3407450D01*
X-3786901Y-3407450D02*
X-3697099Y-3497252D01*
X-3786901Y-3497252D02*
X-3697099Y-3407450D01*
X-3532901Y-3407450D02*
X-3443099Y-3497252D01*
X-3532901Y-3497252D02*
X-3443099Y-3407450D01*
X-3278901Y-3407450D02*
X-3189099Y-3497252D01*
X-3278901Y-3497252D02*
X-3189099Y-3407450D01*
X-3024901Y-3407450D02*
X-2935099Y-3497252D01*
X-3024901Y-3497252D02*
X-2935099Y-3407450D01*
X-2270901Y-3417450D02*
X-2181099Y-3507252D01*
X-2270901Y-3507252D02*
X-2181099Y-3417450D01*
X-2016901Y-3417450D02*
X-1927099Y-3507252D01*
X-2016901Y-3507252D02*
X-1927099Y-3417450D01*
X-1762901Y-3417450D02*
X-1673099Y-3507252D01*
X-1762901Y-3507252D02*
X-1673099Y-3417450D01*
X-1508901Y-3417450D02*
X-1419099Y-3507252D01*
X-1508901Y-3507252D02*
X-1419099Y-3417450D01*
X-1254901Y-3417450D02*
X-1165099Y-3507252D01*
X-1254901Y-3507252D02*
X-1165099Y-3417450D01*
X-1000901Y-3417450D02*
X-911099Y-3507252D01*
X-1000901Y-3507252D02*
X-911099Y-3417450D01*
X-746901Y-3417450D02*
X-657099Y-3507252D01*
X-746901Y-3507252D02*
X-657099Y-3417450D01*
X-492901Y-3417450D02*
X-403099Y-3507252D01*
X-492901Y-3507252D02*
X-403099Y-3417450D01*
X+177099Y-3417450D02*
X+266901Y-3507252D01*
X+177099Y-3507252D02*
X+266901Y-3417450D01*
X+431099Y-3417450D02*
X+520901Y-3507252D01*
X+431099Y-3507252D02*
X+520901Y-3417450D01*
X+685099Y-3417450D02*
X+774901Y-3507252D01*
X+685099Y-3507252D02*
X+774901Y-3417450D01*
X+939099Y-3417450D02*
X+1028901Y-3507252D01*
X+939099Y-3507252D02*
X+1028901Y-3417450D01*
X+1193099Y-3417450D02*
X+1282901Y-3507252D01*
X+1193099Y-3507252D02*
X+1282901Y-3417450D01*
X+1447099Y-3417450D02*
X+1536901Y-3507252D01*
X+1447099Y-3507252D02*
X+1536901Y-3417450D01*
X+1701099Y-3417450D02*
X+1790901Y-3507252D01*
X+1701099Y-3507252D02*
X+1790901Y-3417450D01*
X+1955099Y-3417450D02*
X+2044901Y-3507252D01*
X+1955099Y-3507252D02*
X+2044901Y-3417450D01*
X+2245099Y+4894901D02*
X+2334901Y+4805099D01*
X+2245099Y+4805099D02*
X+2334901Y+4894901D01*
X+1991099Y+4894901D02*
X+2080901Y+4805099D01*
X+1991099Y+4805099D02*
X+2080901Y+4894901D01*
X+1737099Y+4894901D02*
X+1826901Y+4805099D01*
X+1737099Y+4805099D02*
X+1826901Y+4894901D01*
X+1483099Y+4894901D02*
X+1572901Y+4805099D01*
X+1483099Y+4805099D02*
X+1572901Y+4894901D01*
X+1229099Y+4894901D02*
X+1318901Y+4805099D01*
X+1229099Y+4805099D02*
X+1318901Y+4894901D01*
X+975099Y+4894901D02*
X+1064901Y+4805099D01*
X+975099Y+4805099D02*
X+1064901Y+4894901D01*
X+721099Y+4894901D02*
X+810901Y+4805099D01*
X+721099Y+4805099D02*
X+810901Y+4894901D01*
X+467099Y+4894901D02*
X+556901Y+4805099D01*
X+467099Y+4805099D02*
X+556901Y+4894901D01*
X-254901Y+4884901D02*
X-165099Y+4795099D01*
X-254901Y+4795099D02*
X-165099Y+4884901D01*
X-508901Y+4884901D02*
X-419099Y+4795099D01*
X-508901Y+4795099D02*
X-419099Y+4884901D01*
X-762901Y+4884901D02*
X-673099Y+4795099D01*
X-762901Y+4795099D02*
X-673099Y+4884901D01*
X-1016901Y+4884901D02*
X-927099Y+4795099D01*
X-1016901Y+4795099D02*
X-927099Y+4884901D01*
X-1270901Y+4884901D02*
X-1181099Y+4795099D01*
X-1270901Y+4795099D02*
X-1181099Y+4884901D01*
X-1524901Y+4884901D02*
X-1435099Y+4795099D01*
X-1524901Y+4795099D02*
X-1435099Y+4884901D01*
X-1778901Y+4884901D02*
X-1689099Y+4795099D01*
X-1778901Y+4795099D02*
X-1689099Y+4884901D01*
X-2032901Y+4884901D02*
X-1943099Y+4795099D01*
X-2032901Y+4795099D02*
X-1943099Y+4884901D01*
X-2764901Y+4894901D02*
X-2675099Y+4805099D01*
X-2764901Y+4805099D02*
X-2675099Y+4894901D01*
X-3018901Y+4894901D02*
X-2929099Y+4805099D01*
X-3018901Y+4805099D02*
X-2929099Y+4894901D01*
X-3272901Y+4894901D02*
X-3183099Y+4805099D01*
X-3272901Y+4805099D02*
X-3183099Y+4894901D01*
X-3526901Y+4894901D02*
X-3437099Y+4805099D01*
X-3526901Y+4805099D02*
X-3437099Y+4894901D01*
X-3780901Y+4894901D02*
X-3691099Y+4805099D01*
X-3780901Y+4805099D02*
X-3691099Y+4894901D01*
X-4034901Y+4894901D02*
X-3945099Y+4805099D01*
X-4034901Y+4805099D02*
X-3945099Y+4894901D01*
X-4288901Y+4894901D02*
X-4199099Y+4805099D01*
X-4288901Y+4805099D02*
X-4199099Y+4894901D01*
X-4542901Y+4894901D02*
X-4453099Y+4805099D01*
X-4542901Y+4805099D02*
X-4453099Y+4894901D01*
X-5244901Y+4884901D02*
X-5155099Y+4795099D01*
X-5244901Y+4795099D02*
X-5155099Y+4884901D01*
X-5498901Y+4884901D02*
X-5409099Y+4795099D01*
X-5498901Y+4795099D02*
X-5409099Y+4884901D01*
X-5752901Y+4884901D02*
X-5663099Y+4795099D01*
X-5752901Y+4795099D02*
X-5663099Y+4884901D01*
X-6006901Y+4884901D02*
X-5917099Y+4795099D01*
X-6006901Y+4795099D02*
X-5917099Y+4884901D01*
X-6260901Y+4884901D02*
X-6171099Y+4795099D01*
X-6260901Y+4795099D02*
X-6171099Y+4884901D01*
X-6514901Y+4884901D02*
X-6425099Y+4795099D01*
X-6514901Y+4795099D02*
X-6425099Y+4884901D01*
X-6768901Y+4884901D02*
X-6679099Y+4795099D01*
X-6768901Y+4795099D02*
X-6679099Y+4884901D01*
X-7022901Y+4884901D02*
X-6933099Y+4795099D01*
X-7022901Y+4795099D02*
X-6933099Y+4884901D01*
X-6982901Y-2987450D02*
X-6893099Y-3077252D01*
X-6982901Y-3077252D02*
X-6893099Y-2987450D01*
X-6982901Y-1971450D02*
X-6893099Y-2061252D01*
X-6982901Y-2061252D02*
X-6893099Y-1971450D01*
X-6722901Y-2977450D02*
X-6633099Y-3067252D01*
X-6722901Y-3067252D02*
X-6633099Y-2977450D01*
X-6722901Y-1961450D02*
X-6633099Y-2051252D01*
X-6722901Y-2051252D02*
X-6633099Y-1961450D01*
X-6462901Y-2977450D02*
X-6373099Y-3067252D01*
X-6462901Y-3067252D02*
X-6373099Y-2977450D01*
X-6462901Y-1961450D02*
X-6373099Y-2051252D01*
X-6462901Y-2051252D02*
X-6373099Y-1961450D01*
X-6192901Y-2977450D02*
X-6103099Y-3067252D01*
X-6192901Y-3067252D02*
X-6103099Y-2977450D01*
X-6192901Y-1961450D02*
X-6103099Y-2051252D01*
X-6192901Y-2051252D02*
X-6103099Y-1961450D01*
X-5912901Y-2977450D02*
X-5823099Y-3067252D01*
X-5912901Y-3067252D02*
X-5823099Y-2977450D01*
X-5912901Y-1961450D02*
X-5823099Y-2051252D01*
X-5912901Y-2051252D02*
X-5823099Y-1961450D01*
X-5652901Y-2977450D02*
X-5563099Y-3067252D01*
X-5652901Y-3067252D02*
X-5563099Y-2977450D01*
X-5652901Y-1961450D02*
X-5563099Y-2051252D01*
X-5652901Y-2051252D02*
X-5563099Y-1961450D01*
X-5382901Y-2987450D02*
X-5293099Y-3077252D01*
X-5382901Y-3077252D02*
X-5293099Y-2987450D01*
X-5382901Y-1971450D02*
X-5293099Y-2061252D01*
X-5382901Y-2061252D02*
X-5293099Y-1971450D01*
X-4442901Y-2963450D02*
X-4353099Y-3053252D01*
X-4442901Y-3053252D02*
X-4353099Y-2963450D01*
X-4442901Y-1947450D02*
X-4353099Y-2037252D01*
X-4442901Y-2037252D02*
X-4353099Y-1947450D01*
X-4182901Y-2963450D02*
X-4093099Y-3053252D01*
X-4182901Y-3053252D02*
X-4093099Y-2963450D01*
X-4182901Y-1947450D02*
X-4093099Y-2037252D01*
X-4182901Y-2037252D02*
X-4093099Y-1947450D01*
X-3912901Y-2953450D02*
X-3823099Y-3043252D01*
X-3912901Y-3043252D02*
X-3823099Y-2953450D01*
X-3912901Y-1937450D02*
X-3823099Y-2027252D01*
X-3912901Y-2027252D02*
X-3823099Y-1937450D01*
X-3652901Y-2953450D02*
X-3563099Y-3043252D01*
X-3652901Y-3043252D02*
X-3563099Y-2953450D01*
X-3652901Y-1937450D02*
X-3563099Y-2027252D01*
X-3652901Y-2027252D02*
X-3563099Y-1937450D01*
X-3372901Y-2953450D02*
X-3283099Y-3043252D01*
X-3372901Y-3043252D02*
X-3283099Y-2953450D01*
X-3372901Y-1937450D02*
X-3283099Y-2027252D01*
X-3372901Y-2027252D02*
X-3283099Y-1937450D01*
X-3102901Y-2963450D02*
X-3013099Y-3053252D01*
X-3102901Y-3053252D02*
X-3013099Y-2963450D01*
X-3102901Y-1947450D02*
X-3013099Y-2037252D01*
X-3102901Y-2037252D02*
X-3013099Y-1947450D01*
X-2842901Y-2953450D02*
X-2753099Y-3043252D01*
X-2842901Y-3043252D02*
X-2753099Y-2953450D01*
X-2842901Y-1937450D02*
X-2753099Y-2027252D01*
X-2842901Y-2027252D02*
X-2753099Y-1937450D01*
X-1712901Y-2947450D02*
X-1623099Y-3037252D01*
X-1712901Y-3037252D02*
X-1623099Y-2947450D01*
X-1712901Y-1931450D02*
X-1623099Y-2021252D01*
X-1712901Y-2021252D02*
X-1623099Y-1931450D01*
X-1452901Y-2957450D02*
X-1363099Y-3047252D01*
X-1452901Y-3047252D02*
X-1363099Y-2957450D01*
X-1452901Y-1941450D02*
X-1363099Y-2031252D01*
X-1452901Y-2031252D02*
X-1363099Y-1941450D01*
X-1192901Y-2957450D02*
X-1103099Y-3047252D01*
X-1192901Y-3047252D02*
X-1103099Y-2957450D01*
X-1192901Y-1941450D02*
X-1103099Y-2031252D01*
X-1192901Y-2031252D02*
X-1103099Y-1941450D01*
X-922901Y-2957450D02*
X-833099Y-3047252D01*
X-922901Y-3047252D02*
X-833099Y-2957450D01*
X-922901Y-1941450D02*
X-833099Y-2031252D01*
X-922901Y-2031252D02*
X-833099Y-1941450D01*
X-652901Y-2957450D02*
X-563099Y-3047252D01*
X-652901Y-3047252D02*
X-563099Y-2957450D01*
X-652901Y-1941450D02*
X-563099Y-2031252D01*
X-652901Y-2031252D02*
X-563099Y-1941450D01*
X-382901Y-2957450D02*
X-293099Y-3047252D01*
X-382901Y-3047252D02*
X-293099Y-2957450D01*
X-382901Y-1941450D02*
X-293099Y-2031252D01*
X-382901Y-2031252D02*
X-293099Y-1941450D01*
X+537099Y-2947450D02*
X+626901Y-3037252D01*
X+537099Y-3037252D02*
X+626901Y-2947450D01*
X+537099Y-1931450D02*
X+626901Y-2021252D01*
X+537099Y-2021252D02*
X+626901Y-1931450D01*
X+797099Y-2957450D02*
X+886901Y-3047252D01*
X+797099Y-3047252D02*
X+886901Y-2957450D01*
X+797099Y-1941450D02*
X+886901Y-2031252D01*
X+797099Y-2031252D02*
X+886901Y-1941450D01*
X+1067099Y-2957450D02*
X+1156901Y-3047252D01*
X+1067099Y-3047252D02*
X+1156901Y-2957450D01*
X+1067099Y-1941450D02*
X+1156901Y-2031252D01*
X+1067099Y-2031252D02*
X+1156901Y-1941450D01*
X+1337099Y-2957450D02*
X+1426901Y-3047252D01*
X+1337099Y-3047252D02*
X+1426901Y-2957450D01*
X+1337099Y-1941450D02*
X+1426901Y-2031252D01*
X+1337099Y-2031252D02*
X+1426901Y-1941450D01*
X+1607099Y-2957450D02*
X+1696901Y-3047252D01*
X+1607099Y-3047252D02*
X+1696901Y-2957450D01*
X+1607099Y-1941450D02*
X+1696901Y-2031252D01*
X+1607099Y-2031252D02*
X+1696901Y-1941450D01*
X+1867099Y-2947450D02*
X+1956901Y-3037252D01*
X+1867099Y-3037252D02*
X+1956901Y-2947450D01*
X+1867099Y-1931450D02*
X+1956901Y-2021252D01*
X+1867099Y-2021252D02*
X+1956901Y-1931450D01*
X+2127099Y-2947450D02*
X+2216901Y-3037252D01*
X+2127099Y-3037252D02*
X+2216901Y-2947450D01*
X+2127099Y-1931450D02*
X+2216901Y-2021252D01*
X+2127099Y-2021252D02*
X+2216901Y-1931450D01*
X+2020000Y+4453500D02*
X+2020000Y+4326500D01*
X+1956500Y+4390000D02*
X+2083500Y+4390000D01*
X+1975099Y+3418901D02*
X+2064901Y+3329099D01*
X+1975099Y+3329099D02*
X+2064901Y+3418901D01*
X+1730000Y+4453500D02*
X+1730000Y+4326500D01*
X+1666500Y+4390000D02*
X+1793500Y+4390000D01*
X+1685099Y+3418901D02*
X+1774901Y+3329099D01*
X+1685099Y+3329099D02*
X+1774901Y+3418901D01*
X+1470000Y+4453500D02*
X+1470000Y+4326500D01*
X+1406500Y+4390000D02*
X+1533500Y+4390000D01*
X+1425099Y+3418901D02*
X+1514901Y+3329099D01*
X+1425099Y+3329099D02*
X+1514901Y+3418901D01*
X+1210000Y+4453500D02*
X+1210000Y+4326500D01*
X+1146500Y+4390000D02*
X+1273500Y+4390000D01*
X+1165099Y+3418901D02*
X+1254901Y+3329099D01*
X+1165099Y+3329099D02*
X+1254901Y+3418901D01*
X+940000Y+4443500D02*
X+940000Y+4316500D01*
X+876500Y+4380000D02*
X+1003500Y+4380000D01*
X+895099Y+3408901D02*
X+984901Y+3319099D01*
X+895099Y+3319099D02*
X+984901Y+3408901D01*
X+670000Y+4443500D02*
X+670000Y+4316500D01*
X+606500Y+4380000D02*
X+733500Y+4380000D01*
X+625099Y+3408901D02*
X+714901Y+3319099D01*
X+625099Y+3319099D02*
X+714901Y+3408901D01*
X+420000Y+4443500D02*
X+420000Y+4316500D01*
X+356500Y+4380000D02*
X+483500Y+4380000D01*
X+420000Y+3427500D02*
X+420000Y+3300500D01*
X+356500Y+3364000D02*
X+483500Y+3364000D01*
X-520000Y+4453500D02*
X-520000Y+4326500D01*
X-583500Y+4390000D02*
X-456500Y+4390000D01*
X-564901Y+3418901D02*
X-475099Y+3329099D01*
X-564901Y+3329099D02*
X-475099Y+3418901D01*
X-780000Y+4443500D02*
X-780000Y+4316500D01*
X-843500Y+4380000D02*
X-716500Y+4380000D01*
X-824901Y+3408901D02*
X-735099Y+3319099D01*
X-824901Y+3319099D02*
X-735099Y+3408901D01*
X-1050000Y+4443500D02*
X-1050000Y+4316500D01*
X-1113500Y+4380000D02*
X-986500Y+4380000D01*
X-1094901Y+3408901D02*
X-1005099Y+3319099D01*
X-1094901Y+3319099D02*
X-1005099Y+3408901D01*
X-1310000Y+4453500D02*
X-1310000Y+4326500D01*
X-1373500Y+4390000D02*
X-1246500Y+4390000D01*
X-1354901Y+3418901D02*
X-1265099Y+3329099D01*
X-1354901Y+3329099D02*
X-1265099Y+3418901D01*
X-1570000Y+4453500D02*
X-1570000Y+4326500D01*
X-1633500Y+4390000D02*
X-1506500Y+4390000D01*
X-1614901Y+3418901D02*
X-1525099Y+3329099D01*
X-1614901Y+3329099D02*
X-1525099Y+3418901D01*
X-1850000Y+4453500D02*
X-1850000Y+4326500D01*
X-1913500Y+4390000D02*
X-1786500Y+4390000D01*
X-1894901Y+3418901D02*
X-1805099Y+3329099D01*
X-1894901Y+3329099D02*
X-1805099Y+3418901D01*
X-2150000Y+4453500D02*
X-2150000Y+4326500D01*
X-2213500Y+4390000D02*
X-2086500Y+4390000D01*
X-2194901Y+3418901D02*
X-2105099Y+3329099D01*
X-2194901Y+3329099D02*
X-2105099Y+3418901D01*
X-2990000Y+4453500D02*
X-2990000Y+4326500D01*
X-3053500Y+4390000D02*
X-2926500Y+4390000D01*
X-3034901Y+3418901D02*
X-2945099Y+3329099D01*
X-3034901Y+3329099D02*
X-2945099Y+3418901D01*
X-3250000Y+4453500D02*
X-3250000Y+4326500D01*
X-3313500Y+4390000D02*
X-3186500Y+4390000D01*
X-3294901Y+3418901D02*
X-3205099Y+3329099D01*
X-3294901Y+3329099D02*
X-3205099Y+3418901D01*
X-3540000Y+4453500D02*
X-3540000Y+4326500D01*
X-3603500Y+4390000D02*
X-3476500Y+4390000D01*
X-3584901Y+3418901D02*
X-3495099Y+3329099D01*
X-3584901Y+3329099D02*
X-3495099Y+3418901D01*
X-3800000Y+4453500D02*
X-3800000Y+4326500D01*
X-3863500Y+4390000D02*
X-3736500Y+4390000D01*
X-3844901Y+3418901D02*
X-3755099Y+3329099D01*
X-3844901Y+3329099D02*
X-3755099Y+3418901D01*
X-4070000Y+4453500D02*
X-4070000Y+4326500D01*
X-4133500Y+4390000D02*
X-4006500Y+4390000D01*
X-4114901Y+3418901D02*
X-4025099Y+3329099D01*
X-4114901Y+3329099D02*
X-4025099Y+3418901D01*
X-4330000Y+4453500D02*
X-4330000Y+4326500D01*
X-4393500Y+4390000D02*
X-4266500Y+4390000D01*
X-4374901Y+3418901D02*
X-4285099Y+3329099D01*
X-4374901Y+3329099D02*
X-4285099Y+3418901D01*
X-4590000Y+4453500D02*
X-4590000Y+4326500D01*
X-4653500Y+4390000D02*
X-4526500Y+4390000D01*
X-4634901Y+3418901D02*
X-4545099Y+3329099D01*
X-4634901Y+3329099D02*
X-4545099Y+3418901D01*
X-5514901Y+4454901D02*
X-5425099Y+4365099D01*
X-5514901Y+4365099D02*
X-5425099Y+4454901D01*
X-5514901Y+3438901D02*
X-5425099Y+3349099D01*
X-5514901Y+3349099D02*
X-5425099Y+3438901D01*
X-5804901Y+4444901D02*
X-5715099Y+4355099D01*
X-5804901Y+4355099D02*
X-5715099Y+4444901D01*
X-5804901Y+3428901D02*
X-5715099Y+3339099D01*
X-5804901Y+3339099D02*
X-5715099Y+3428901D01*
X-6074901Y+4434901D02*
X-5985099Y+4345099D01*
X-6074901Y+4345099D02*
X-5985099Y+4434901D01*
X-6074901Y+3418901D02*
X-5985099Y+3329099D01*
X-6074901Y+3329099D02*
X-5985099Y+3418901D01*
X-6334901Y+4434901D02*
X-6245099Y+4345099D01*
X-6334901Y+4345099D02*
X-6245099Y+4434901D01*
X-6334901Y+3418901D02*
X-6245099Y+3329099D01*
X-6334901Y+3329099D02*
X-6245099Y+3418901D01*
X-6604901Y+4434901D02*
X-6515099Y+4345099D01*
X-6604901Y+4345099D02*
X-6515099Y+4434901D01*
X-6604901Y+3418901D02*
X-6515099Y+3329099D01*
X-6604901Y+3329099D02*
X-6515099Y+3418901D01*
X-6864901Y+4424901D02*
X-6775099Y+4335099D01*
X-6864901Y+4335099D02*
X-6775099Y+4424901D01*
X-6864901Y+3408901D02*
X-6775099Y+3319099D01*
X-6864901Y+3319099D02*
X-6775099Y+3408901D01*
X-7124901Y+4424901D02*
X-7035099Y+4335099D01*
X-7124901Y+4335099D02*
X-7035099Y+4424901D01*
X-7124901Y+3408901D02*
X-7035099Y+3319099D01*
X-7124901Y+3319099D02*
X-7035099Y+3408901D01*
X-1960000Y-2946500D02*
X-1960000Y-3073500D01*
X-2023500Y-3010000D02*
X-1896500Y-3010000D01*
X-1960000Y-1930500D02*
X-1960000Y-2057500D01*
X-2023500Y-1994000D02*
X-1896500Y-1994000D01*
X-10420000Y-3810000D02*
X+3040000Y-3810000D01*
X+3040000Y+5230000D01*
X-10420000Y+5230000D01*
X-10420000Y-3810000D01*
D24*
X-10430160Y-5604177D02*
X-7786020Y-5604177D01*
X-7786020Y-4600877D01*
X-10430160Y-4600877D01*
X-10430160Y-5604177D01*
D25*
X-9962798Y-4600877D02*
X-9962798Y-5604177D01*
X-9149998Y-4600877D02*
X-9149998Y-5604177D01*
X-8316878Y-4600877D02*
X-8316878Y-5604177D01*
X-10430160Y-4873927D02*
X-7786020Y-4873927D01*
X-10430160Y-5115227D02*
X-7786020Y-5115227D01*
X-10430160Y-5356527D02*
X-7786020Y-5356527D01*
D24*
X-10373010Y-4764707D02*
X-10357770Y-4779947D01*
X-10296810Y-4779947D01*
X-10281570Y-4764707D01*
X-10281570Y-4749467D01*
X-10296810Y-4734227D01*
X-10357770Y-4734227D01*
X-10373010Y-4718987D01*
X-10373010Y-4703747D01*
X-10357770Y-4688507D01*
X-10296810Y-4688507D01*
X-10281570Y-4703747D01*
X-10159650Y-4688507D02*
X-10251090Y-4779947D01*
X-10251090Y-4688507D02*
X-10205370Y-4734227D01*
X-10129170Y-4779947D02*
X-10129170Y-4688507D01*
X-10083450Y-4734227D01*
X-10037730Y-4688507D01*
X-10037730Y-4779947D01*
X-9905650Y-4764707D02*
X-9890410Y-4779947D01*
X-9829450Y-4779947D01*
X-9814210Y-4764707D01*
X-9814210Y-4749467D01*
X-9829450Y-4734227D01*
X-9890410Y-4734227D01*
X-9905650Y-4718987D01*
X-9905650Y-4703747D01*
X-9890410Y-4688507D01*
X-9829450Y-4688507D01*
X-9814210Y-4703747D01*
X-9768490Y-4688507D02*
X-9707530Y-4688507D01*
X-9738010Y-4688507D02*
X-9738010Y-4779947D01*
X-9768490Y-4779947D02*
X-9707530Y-4779947D01*
X-9661810Y-4688507D02*
X-9570370Y-4688507D01*
X-9661810Y-4779947D01*
X-9570370Y-4779947D01*
X-9448450Y-4779947D02*
X-9539890Y-4779947D01*
X-9539890Y-4688507D01*
X-9448450Y-4688507D01*
X-9539890Y-4734227D02*
X-9478930Y-4734227D01*
X-9092850Y-4779947D02*
X-9092850Y-4688507D01*
X-9016650Y-4688507D01*
X-9001410Y-4703747D01*
X-9001410Y-4718987D01*
X-9016650Y-4734227D01*
X-9092850Y-4734227D01*
X-8970930Y-4688507D02*
X-8970930Y-4779947D01*
X-8879490Y-4779947D01*
X-8849010Y-4779947D02*
X-8849010Y-4718987D01*
X-8818530Y-4688507D01*
X-8788050Y-4688507D01*
X-8757570Y-4718987D01*
X-8757570Y-4779947D01*
X-8849010Y-4749467D02*
X-8757570Y-4749467D01*
X-8727090Y-4688507D02*
X-8635650Y-4688507D01*
X-8681370Y-4688507D02*
X-8681370Y-4779947D01*
X-8513730Y-4779947D02*
X-8605170Y-4779947D01*
X-8605170Y-4688507D01*
X-8513730Y-4688507D01*
X-8605170Y-4734227D02*
X-8544210Y-4734227D01*
X-8483250Y-4779947D02*
X-8483250Y-4688507D01*
X-8422290Y-4688507D01*
X-8391810Y-4718987D01*
X-8391810Y-4749467D01*
X-8422290Y-4779947D01*
X-8483250Y-4779947D01*
X-8259730Y-4718987D02*
X-8229250Y-4688507D01*
X-8198770Y-4688507D01*
X-8168290Y-4718987D01*
X-8168290Y-4749467D01*
X-8198770Y-4779947D01*
X-8229250Y-4779947D01*
X-8259730Y-4749467D01*
X-8259730Y-4718987D01*
X-8198770Y-4749467D02*
X-8168290Y-4779947D01*
X-8137810Y-4688507D02*
X-8046370Y-4688507D01*
X-8092090Y-4688507D02*
X-8092090Y-4779947D01*
X-7924450Y-4688507D02*
X-8015890Y-4779947D01*
X-8015890Y-4688507D02*
X-7970170Y-4734227D01*
D12*
X-10183780Y-4924727D02*
X-10183780Y-5051727D01*
X-10247280Y-4988227D02*
X-10120280Y-4988227D01*
D24*
X-9886600Y-5013627D02*
X-9886600Y-4962827D01*
X-9873900Y-4950127D01*
X-9823100Y-4950127D01*
X-9810400Y-4962827D01*
X-9810400Y-5013627D01*
X-9823100Y-5026327D01*
X-9873900Y-5026327D01*
X-9886600Y-5013627D01*
X-9886600Y-5026327D02*
X-9810400Y-4950127D01*
X-9746900Y-5013627D02*
X-9734200Y-5013627D01*
X-9734200Y-5026327D01*
X-9746900Y-5026327D01*
X-9746900Y-5013627D01*
X-9670700Y-4950127D02*
X-9607200Y-4950127D01*
X-9607200Y-4962827D01*
X-9670700Y-5026327D01*
X-9505600Y-4962827D02*
X-9518300Y-4950127D01*
X-9556400Y-4950127D01*
X-9569100Y-4962827D01*
X-9569100Y-5013627D01*
X-9556400Y-5026327D01*
X-9518300Y-5026327D01*
X-9505600Y-5013627D01*
X-9505600Y-5000927D01*
X-9518300Y-4988227D01*
X-9569100Y-4988227D01*
X-9467500Y-4962827D02*
X-9454800Y-4950127D01*
X-9416700Y-4950127D01*
X-9404000Y-4962827D01*
X-9404000Y-4975527D01*
X-9416700Y-4988227D01*
X-9454800Y-4988227D01*
X-9467500Y-5000927D01*
X-9467500Y-5026327D01*
X-9404000Y-5026327D01*
X-9378600Y-5026327D02*
X-9378600Y-4975527D01*
X-9378600Y-4988227D02*
X-9365900Y-4975527D01*
X-9340500Y-5000927D01*
X-9315100Y-4975527D01*
X-9302400Y-4988227D01*
X-9302400Y-5026327D01*
X-9277000Y-5026327D02*
X-9277000Y-4975527D01*
X-9277000Y-4988227D02*
X-9264300Y-4975527D01*
X-9238900Y-5000927D01*
X-9213500Y-4975527D01*
X-9200800Y-4988227D01*
X-9200800Y-5026327D01*
X-8984900Y-4950127D02*
X-9061100Y-5026327D01*
X-9061100Y-4950127D02*
X-9023000Y-4988227D01*
X-8883300Y-5026327D02*
X-8959500Y-5026327D01*
X-8959500Y-4950127D01*
X-8883300Y-4950127D01*
X-8959500Y-4988227D02*
X-8908700Y-4988227D01*
X-8857900Y-5013627D02*
X-8845200Y-5026327D01*
X-8794400Y-5026327D01*
X-8781700Y-5013627D01*
X-8781700Y-5000927D01*
X-8794400Y-4988227D01*
X-8845200Y-4988227D01*
X-8857900Y-4975527D01*
X-8857900Y-4962827D01*
X-8845200Y-4950127D01*
X-8794400Y-4950127D01*
X-8781700Y-4962827D01*
X-8202580Y-4962827D02*
X-8189880Y-4950127D01*
X-8151780Y-4950127D01*
X-8139080Y-4962827D01*
X-8139080Y-4975527D01*
X-8151780Y-4988227D01*
X-8189880Y-4988227D01*
X-8202580Y-5000927D01*
X-8202580Y-5026327D01*
X-8139080Y-5026327D01*
X-8037480Y-5000927D02*
X-8113680Y-5000927D01*
X-8062880Y-4950127D01*
X-8062880Y-5026327D01*
D12*
X-10228681Y-5184626D02*
X-10138879Y-5274428D01*
X-10228681Y-5274428D02*
X-10138879Y-5184626D01*
D24*
X-9861200Y-5216827D02*
X-9835800Y-5191427D01*
X-9835800Y-5267627D01*
X-9746900Y-5254927D02*
X-9734200Y-5254927D01*
X-9734200Y-5267627D01*
X-9746900Y-5267627D01*
X-9746900Y-5254927D01*
X-9683400Y-5254927D02*
X-9683400Y-5204127D01*
X-9670700Y-5191427D01*
X-9619900Y-5191427D01*
X-9607200Y-5204127D01*
X-9607200Y-5254927D01*
X-9619900Y-5267627D01*
X-9670700Y-5267627D01*
X-9683400Y-5254927D01*
X-9683400Y-5267627D02*
X-9607200Y-5191427D01*
X-9556400Y-5216827D02*
X-9531000Y-5191427D01*
X-9531000Y-5267627D01*
X-9404000Y-5204127D02*
X-9416700Y-5191427D01*
X-9454800Y-5191427D01*
X-9467500Y-5204127D01*
X-9467500Y-5254927D01*
X-9454800Y-5267627D01*
X-9416700Y-5267627D01*
X-9404000Y-5254927D01*
X-9404000Y-5242227D01*
X-9416700Y-5229527D01*
X-9467500Y-5229527D01*
X-9378600Y-5267627D02*
X-9378600Y-5216827D01*
X-9378600Y-5229527D02*
X-9365900Y-5216827D01*
X-9340500Y-5242227D01*
X-9315100Y-5216827D01*
X-9302400Y-5229527D01*
X-9302400Y-5267627D01*
X-9277000Y-5267627D02*
X-9277000Y-5216827D01*
X-9277000Y-5229527D02*
X-9264300Y-5216827D01*
X-9238900Y-5242227D01*
X-9213500Y-5216827D01*
X-9200800Y-5229527D01*
X-9200800Y-5267627D01*
X-8984900Y-5191427D02*
X-9061100Y-5267627D01*
X-9061100Y-5191427D02*
X-9023000Y-5229527D01*
X-8883300Y-5267627D02*
X-8959500Y-5267627D01*
X-8959500Y-5191427D01*
X-8883300Y-5191427D01*
X-8959500Y-5229527D02*
X-8908700Y-5229527D01*
X-8857900Y-5254927D02*
X-8845200Y-5267627D01*
X-8794400Y-5267627D01*
X-8781700Y-5254927D01*
X-8781700Y-5242227D01*
X-8794400Y-5229527D01*
X-8845200Y-5229527D01*
X-8857900Y-5216827D01*
X-8857900Y-5204127D01*
X-8845200Y-5191427D01*
X-8794400Y-5191427D01*
X-8781700Y-5204127D01*
X-8202580Y-5204127D02*
X-8189880Y-5191427D01*
X-8151780Y-5191427D01*
X-8139080Y-5204127D01*
X-8139080Y-5216827D01*
X-8151780Y-5229527D01*
X-8139080Y-5242227D01*
X-8139080Y-5254927D01*
X-8151780Y-5267627D01*
X-8189880Y-5267627D01*
X-8202580Y-5254927D01*
X-8177180Y-5229527D02*
X-8151780Y-5229527D01*
X-8037480Y-5204127D02*
X-8050180Y-5191427D01*
X-8088280Y-5191427D01*
X-8100980Y-5204127D01*
X-8100980Y-5254927D01*
X-8088280Y-5267627D01*
X-8050180Y-5267627D01*
X-8037480Y-5254927D01*
X-8037480Y-5242227D01*
X-8050180Y-5229527D01*
X-8100980Y-5229527D01*
X-7999380Y-5191427D02*
X-7935880Y-5191427D01*
X-7935880Y-5204127D01*
X-7999380Y-5267627D01*
D12*
X-10183780Y-5407327D02*
X-10183780Y-5534327D01*
X-10247280Y-5470827D02*
X-10120280Y-5470827D01*
X-10228681Y-5425926D02*
X-10138879Y-5515728D01*
X-10228681Y-5515728D02*
X-10138879Y-5425926D01*
D24*
X-9861200Y-5458127D02*
X-9835800Y-5432727D01*
X-9835800Y-5508927D01*
X-9746900Y-5496227D02*
X-9734200Y-5496227D01*
X-9734200Y-5508927D01*
X-9746900Y-5508927D01*
X-9746900Y-5496227D01*
X-9670700Y-5445427D02*
X-9658000Y-5432727D01*
X-9619900Y-5432727D01*
X-9607200Y-5445427D01*
X-9607200Y-5458127D01*
X-9619900Y-5470827D01*
X-9658000Y-5470827D01*
X-9670700Y-5483527D01*
X-9670700Y-5508927D01*
X-9607200Y-5508927D01*
X-9569100Y-5432727D02*
X-9505600Y-5432727D01*
X-9505600Y-5445427D01*
X-9569100Y-5508927D01*
X-9480200Y-5508927D02*
X-9480200Y-5458127D01*
X-9480200Y-5470827D02*
X-9467500Y-5458127D01*
X-9442100Y-5483527D01*
X-9416700Y-5458127D01*
X-9404000Y-5470827D01*
X-9404000Y-5508927D01*
X-9378600Y-5508927D02*
X-9378600Y-5458127D01*
X-9378600Y-5470827D02*
X-9365900Y-5458127D01*
X-9340500Y-5483527D01*
X-9315100Y-5458127D01*
X-9302400Y-5470827D01*
X-9302400Y-5508927D01*
X-8984900Y-5432727D02*
X-9061100Y-5508927D01*
X-9061100Y-5432727D02*
X-9023000Y-5470827D01*
X-8883300Y-5508927D02*
X-8959500Y-5508927D01*
X-8959500Y-5432727D01*
X-8883300Y-5432727D01*
X-8959500Y-5470827D02*
X-8908700Y-5470827D01*
X-8857900Y-5496227D02*
X-8845200Y-5508927D01*
X-8794400Y-5508927D01*
X-8781700Y-5496227D01*
X-8781700Y-5483527D01*
X-8794400Y-5470827D01*
X-8845200Y-5470827D01*
X-8857900Y-5458127D01*
X-8857900Y-5445427D01*
X-8845200Y-5432727D01*
X-8794400Y-5432727D01*
X-8781700Y-5445427D01*
X-8202580Y-5445427D02*
X-8189880Y-5432727D01*
X-8151780Y-5432727D01*
X-8139080Y-5445427D01*
X-8139080Y-5458127D01*
X-8151780Y-5470827D01*
X-8189880Y-5470827D01*
X-8202580Y-5483527D01*
X-8202580Y-5508927D01*
X-8139080Y-5508927D01*
M02*
